<svg id="Layer_1" enable-background="new 0 0 512 512" height="512" viewBox="0 0 512 512" width="512" xmlns="http://www.w3.org/2000/svg"><g><g><path d="m454.422 512h-353.066c-17.609 0-31.884-14.275-31.884-31.884v-254.904c0-17.609 14.275-31.884 31.884-31.884h47.867l23.917 15 25.739-15h70.132l21.152 15 28.504-15h70.132l22.931 15 26.725-15h15.967c17.609 0 31.884 14.275 31.884 31.884v254.904c0 17.609-14.275 31.884-31.884 31.884z" fill="#685e68"/><path d="m455.4 240.703v239.413c0 17.609-14.275 31.884-31.884 31.884h30.905c17.609 0 31.884-14.275 31.884-31.884v-239.413z" fill="#554e56"/><g><path d="m57.6 186.666-9.786-24.233c-2.197-5.441.437-11.63 5.883-13.825l34.515-13.909 28.124-6.677 17.926-11.881 65.039-26.21 29.664-7.376 16.386-11.181 65.039-26.21 28.395-7.284 17.655-11.274 64.099-25.831c5.446-2.195 11.642.436 13.84 5.877l9.786 24.233c2.197 5.441-.437 11.63-5.883 13.825l-34.515 13.909-28.794 8.044-17.256 10.513-65.039 26.21-28.794 5.376-17.256 13.181-65.039 26.21-27.747 6.986-18.303 11.572-64.099 25.831c-5.447 2.196-11.643-.435-13.84-5.876z" fill="#554e56"/><path d="m444.163 30.884-9.786-24.233c-2.197-5.44-8.393-8.071-13.839-5.877l-16.718 6.737 9.439 23.373c2.197 5.441-.437 11.63-5.883 13.825l-350.124 141.096.347.861c2.197 5.441 8.393 8.072 13.839 5.877l64.099-25.831 18.303-11.571 27.747-6.986 65.039-26.21 22.194-13.181 23.856-5.376 65.039-26.21 18.468-14.939 27.582-3.619 34.515-13.909c5.447-2.196 8.08-8.386 5.883-13.827z" fill="#433f43"/><path d="m357.716 77.176 46.05-18.558-47.327-32.013-46.05 18.558z" fill="#ffe07d"/><path d="m357.715 77.176 46.05-18.558-11.538-7.805-46.05 18.558z" fill="#ffd064"/><path d="m246.627 121.944 46.05-18.558-47.327-32.013-46.05 18.558z" fill="#f58a97"/><path d="m246.627 121.944 46.05-18.558-11.539-7.805-46.05 18.558z" fill="#f07281"/><path d="m135.538 166.712 46.05-18.558-47.327-32.013-46.05 18.558z" fill="#b3e59f"/><path d="m135.538 166.712 46.05-18.558-11.539-7.805-46.05 18.558z" fill="#95d6a4"/></g><g><path d="m486.306 225.195v15.508h-416.834v-15.508c0-17.6 14.282-31.867 31.901-31.867h47.851l20.147 15 29.509-15h70.132l20.242 15 29.414-15h70.132l22.755 15 26.901-15h15.95c17.617 0 31.9 14.267 31.9 31.867z" fill="#554e56"/><path d="m436.575 196.119c11.098 4.988 18.825 16.13 18.825 29.076v15.508h30.905v-15.508c0-17.6-14.282-31.867-31.901-31.867h-15.95z" fill="#433f43"/><path d="m388.799 193.328h49.656l-31.901 47.375h-49.656z" fill="#ffe07d"/><path d="m269.011 193.328h49.656l-31.9 47.375h-49.656z" fill="#f58a97"/><path d="m149.223 193.328h49.656l-31.9 47.375h-49.656z" fill="#b3e59f"/></g><ellipse cx="63.303" cy="208.73" fill="#f9f6f6" rx="37.609" ry="37.569"/><path d="m63.303 171.161c-5.51 0-10.737 1.193-15.453 3.32 13.061 5.89 22.156 19.005 22.156 34.249 0 15.245-9.095 28.359-22.156 34.249 4.715 2.127 9.943 3.32 15.453 3.32 20.771 0 37.609-16.82 37.609-37.569s-16.838-37.569-37.609-37.569z" fill="#efedef"/></g><g><path d="m208.417 343.258h138.945v98.054h-138.945z" fill="#f9f6f6"/><path d="m347.361 343.258h138.945v98.054h-138.945z" fill="#918291"/><path d="m455.4 343.259h30.905v98.053h-30.905z" fill="#7a6d79"/><path d="m69.472 343.258h138.945v98.054h-138.945z" fill="#918291"/><g><path d="m175.926 303.665h-71.189c-4.267 0-7.726-3.459-7.726-7.726s3.459-7.726 7.726-7.726h71.189c4.267 0 7.726 3.459 7.726 7.726.001 4.267-3.458 7.726-7.726 7.726z" fill="#f9f6f6"/></g><g><path d="m313.483 303.665h-71.189c-4.267 0-7.726-3.459-7.726-7.726s3.459-7.726 7.726-7.726h71.189c4.267 0 7.726 3.459 7.726 7.726.001 4.267-3.459 7.726-7.726 7.726z" fill="#f9f6f6"/></g><g><path d="m452.428 303.665h-71.189c-4.267 0-7.726-3.459-7.726-7.726s3.459-7.726 7.726-7.726h71.189c4.267 0 7.726 3.459 7.726 7.726s-3.459 7.726-7.726 7.726z" fill="#f9f6f6"/></g></g></g></svg>